<?xml version="1.0" encoding="utf-8"?>
<!-- Generator: Adobe Illustrator 25.2.3, SVG Export Plug-In . SVG Version: 6.00 Build 0)  -->
<svg version="1.1" id="Layer_1" xmlns="http://www.w3.org/2000/svg" xmlns:xlink="http://www.w3.org/1999/xlink" x="0px" y="0px"
	 viewBox="0 0 1920 1080" style="enable-background:new 0 0 1920 1080;" xml:space="preserve">
<style type="text/css">
	.st0{fill:#F27A5F;}
	.st1{fill:#F8D37C;}
	.st2{fill:#B2CD9D;}
	.st3{fill:#F2A45F;}
	.st4{fill:#A3DAD2;}
	.st5{fill:#A496B8;}
</style>
<g>
	<path class="st0" d="M0,475.69c0-43.15,0-86.29,0-129.44c1.81-0.02,3.41,0.73,5.05,1.34c4.8,1.77,9.47,3.84,14.25,5.65
		c5.54,2.1,11.01,4.38,16.53,6.54c10.04,3.93,20.02,7.99,30.18,11.6c5.2,1.85,10.33,3.92,15.49,5.88c4.41,1.67,8.8,3.38,13.24,4.97
		c3.93,1.41,7.95,2.55,11.85,4.04c8.7,3.32,17.58,6.1,26.43,8.96c10.38,3.36,20.85,6.46,31.28,9.66c1.54,0.47,3.11,0.9,4.66,1.34
		c8.16,2.35,16.3,4.72,24.47,7.03c9.98,2.82,19.96,5.66,29.96,8.37c8.32,2.25,16.57,4.74,24.95,6.74c5.76,1.37,11.44,3.1,17.17,4.61
		c5.6,1.47,11.23,2.8,16.83,4.28c5.34,1.41,10.63,3,15.98,4.37c17.09,4.38,34.19,8.7,51.29,13.01c4.05,1.02,8.14,1.86,12.18,2.88
		c8.36,2.11,16.69,4.3,25.04,6.41c8.61,2.18,17.28,4.14,25.83,6.53c6.62,1.85,13.35,3.22,19.97,5.06
		c10.9,3.03,21.94,5.53,32.91,8.28c8.23,2.06,16.46,4.12,24.67,6.24c10.3,2.66,20.58,5.4,30.88,8.06c6.38,1.65,12.8,3.17,19.17,4.84
		c9.51,2.5,18.99,5.1,28.5,7.62c5.99,1.58,12.02,3.01,17.99,4.64c9.74,2.67,19.45,5.47,29.18,8.19c8.43,2.35,16.9,4.56,25.31,7
		c12.68,3.68,25.34,7.43,37.96,11.29c11.08,3.39,22.13,6.9,33.15,10.5c8.58,2.8,17.11,5.79,25.63,8.77c7.5,2.62,15,5.27,22.45,8.05
		c9.08,3.39,18.12,6.89,26.96,10.9c4.29,1.95,8.74,3.53,12.96,5.66c4.69,2.36,9.42,4.67,14.26,6.69c8.6,3.58,16.63,8.32,25.21,11.94
		c4.08,1.72,7.96,3.94,11.95,5.89c1.33,0.65,2.69,1.26,4.1,1.69c5.02,1.54,10.02,3.19,15.12,4.46c11.39,2.83,22.47,6.66,33.7,10.01
		c9.42,2.81,18.72,6.02,28.07,9.06c2.43,0.79,4.88,1.54,7.28,2.41c10,3.66,19.99,7.33,29.96,11.04c8.33,3.11,16.67,6.18,24.94,9.45
		c14.03,5.55,27.98,11.29,41.73,17.51c8.95,4.05,18.01,7.87,26.95,11.96c7.23,3.31,14.36,6.81,21.5,10.31
		c7.5,3.68,14.96,7.44,22.43,11.18c4.46,2.23,8.95,4.42,13.37,6.74c8.11,4.25,16.18,8.57,24.26,12.89c3.21,1.71,6.39,3.48,9.56,5.25
		c6.35,3.54,12.69,7.08,19.03,10.65c5.04,2.84,10.12,5.63,15.08,8.63c4.37,2.65,8.98,4.88,13.24,7.73c3.12,2.09,6.54,3.74,9.77,5.66
		c10.29,6.14,20.55,12.34,30.84,18.48c9.02,5.38,18.07,10.71,27.11,16.06c6.83,4.05,13.65,8.14,20.5,12.16
		c6.85,4.02,13.77,7.92,20.57,12.01c2.32,1.39,4.75,2.54,7.08,3.9c5.94,3.45,11.82,7,17.78,10.4c8.66,4.94,17.36,9.79,26.06,14.66
		c9.17,5.13,18.34,10.25,27.52,15.36c0.94,0.52,1.92,1.02,2.93,1.35c3.71,1.21,7.45,2.35,11.18,3.51c3.86,1.2,7.72,2.38,11.57,3.61
		c5.13,1.64,10.22,3.41,15.37,4.98c5.92,1.81,11.89,3.44,17.83,5.2c5.94,1.75,11.86,3.61,17.81,5.33c8.41,2.43,16.84,4.8,25.27,7.14
		c10.25,2.85,20.51,5.68,30.79,8.43c8.71,2.33,17.49,4.42,26.19,6.83c11.68,3.24,23.41,6.3,35.22,9.01
		c11.29,2.59,22.54,5.32,33.8,8.01c12.44,2.97,24.89,5.94,37.32,8.93c8.11,1.95,16.21,3.93,24.32,5.88
		c7.59,1.83,15.18,3.66,22.77,5.46c9.56,2.27,19.13,4.51,28.69,6.78c7.33,1.74,14.66,3.51,21.99,5.28
		c9.69,2.34,19.38,4.67,29.06,7.05c2.62,0.64,5.18,1.51,7.79,2.14c12.83,3.09,25.72,5.96,38.48,9.29c5.99,1.56,12.01,3.01,18,4.58
		c15.24,4.01,30.54,7.78,45.79,11.74c9.52,2.47,18.99,5.12,28.48,7.69c0,24,0,48,0,72c-140.57,0-281.15,0-421.72,0
		c-0.54-1.37-1.77-1.97-2.92-2.67c-2.87-1.76-5.72-3.56-8.62-5.28c-6.95-4.12-13.89-8.28-20.91-12.28
		c-5.97-3.39-12.01-6.66-18.09-9.84c-6.93-3.63-13.94-7.09-21.64-8.87c-1.44-0.33-2.9-0.62-4.33-1c-7.16-1.91-14.3-3.89-21.47-5.75
		c-5.74-1.49-11.53-2.8-17.27-4.26c-10.45-2.66-20.86-5.46-31.32-8.03c-12.3-3.02-24.65-5.86-36.98-8.76
		c-11.41-2.68-22.79-5.49-34.24-7.97c-18.96-4.11-37.85-8.56-56.81-12.67c-20.67-4.48-41.38-8.77-62.09-13.11
		c-17.27-3.62-34.56-7.17-51.84-10.76c-12.93-2.68-25.87-5.31-38.78-8.06c-16.47-3.51-32.9-7.22-49.38-10.69
		c-20.18-4.25-40.22-9.04-60.25-13.91c-17.42-4.24-34.74-8.82-52.04-13.54c-16.12-4.4-32.12-9.23-48.06-14.22
		c-10.67-3.34-21.29-6.86-31.86-10.52c-11.97-4.14-23.88-8.46-35.77-12.83c-6.7-2.46-13.33-5.14-19.96-7.79
		c-7.26-2.89-14.53-5.76-21.72-8.82c-10.17-4.33-20.28-8.79-30.38-13.27c-5.66-2.51-11.27-5.13-16.88-7.75
		c-5.98-2.79-11.95-5.6-17.9-8.48c-6.67-3.23-13.34-6.45-19.92-9.84c-8.75-4.5-17.42-9.15-26.11-13.77
		c-6.06-3.22-12.13-6.44-18.13-9.77c-8.83-4.9-17.62-9.89-26.41-14.88c-5.86-3.32-11.73-6.63-17.51-10.08
		c-10.41-6.21-20.79-12.46-31.11-18.81c-8.49-5.22-16.89-10.58-25.29-15.94c-8.06-5.14-16.04-10.42-24.13-15.51
		c-9.34-5.87-18.73-11.67-27.38-18.56c-2.1-1.67-4.47-3.01-6.63-4.62c-6.15-4.59-12.53-8.85-18.67-13.46
		c-9.79-7.35-19.83-14.37-29.73-21.58c-5.87-4.28-11.66-8.67-17.5-12.98c-4.44-3.28-8.84-6.63-13.35-9.8
		c-3.85-2.71-7.62-5.54-11.5-8.21c-7.1-4.89-14.01-10.04-21.09-14.96c-6.08-4.22-12.25-8.3-18.43-12.37
		c-6.08-4-12.14-8.03-18.33-11.85c-6.87-4.24-13.89-8.25-20.83-12.39c-5.32-3.17-10.72-6.2-16.06-9.34
		c-6.6-3.89-13.53-7.24-20.37-10.73c-5.16-2.64-10.42-5.07-15.68-7.52c-10.26-4.76-20.49-9.6-30.86-14.14
		c-12.1-5.3-24.28-10.38-36.55-15.28c-3.13-1.25-6.29-2.42-9.37-3.79c-4.32-1.92-8.67-3.81-13.24-4.94
		c-6.84-1.69-13.33-4.34-19.84-6.89c-6.28-2.46-12.66-4.62-19.01-6.85c-5.97-2.1-12.03-3.97-18.05-5.91
		c-9.88-3.18-19.73-6.45-29.66-9.47c-13.02-3.96-26.1-7.72-39.16-11.55c-5.82-1.7-11.66-3.34-17.48-5.04
		C6.29,477.17,3.21,476.19,0,475.69z"/>
	<path class="st1" d="M1920,726.47c0,64.45,0,128.9,0,193.35c-1.08-0.55-2.21-1.02-3.23-1.67c-7.83-5-15.74-9.89-23.43-15.1
		c-7.46-5.05-14.72-10.41-22.03-15.68c-4.48-3.23-8.97-6.44-13.33-9.83c-5.95-4.61-11.73-9.46-17.69-14.06
		c-6.08-4.68-11.85-9.73-17.68-14.71c-2.76-2.36-5.47-4.79-8.23-7.15c-2.66-2.27-5.47-4.38-8.02-6.76
		c-3.55-3.31-7.31-6.35-11.1-9.37c-4-3.18-7.96-6.41-12-9.54c-2.77-2.14-5.64-4.15-8.48-6.19c-6.34-4.56-12.59-9.26-19.04-13.64
		c-12.82-8.71-25.98-16.88-39.35-24.72c-11.51-6.75-23.22-13.13-35.02-19.35c-6.44-3.39-12.99-6.6-19.53-9.79
		c-8.11-3.97-16.23-7.93-24.42-11.73c-6.23-2.89-12.56-5.57-18.87-8.28c-8.04-3.46-16.07-6.97-24.18-10.26
		c-13.48-5.48-27.07-10.68-40.69-15.82c-13.12-4.95-26.35-9.56-39.6-14.13c-14.78-5.1-29.71-9.78-44.57-14.64
		c-2.18-0.71-4.34-1.48-6.53-2.14c-10.19-3.07-20.39-6.11-30.59-9.15c-8-2.39-15.99-4.86-24.03-7.12
		c-13.35-3.75-26.74-7.4-40.13-11.02c-14.95-4.04-29.89-8.16-44.9-11.96c-26.77-6.78-53.58-13.38-80.39-19.98
		c-13.07-3.22-26.18-6.3-39.29-9.4c-12.58-2.97-25.17-5.89-37.76-8.83c-11.67-2.72-23.34-5.44-35.01-8.15
		c-11.54-2.68-23.09-5.34-34.62-8.03c-13.37-3.12-26.74-6.29-40.12-9.39c-13.24-3.07-26.51-6.07-39.75-9.15
		c-10.49-2.44-20.96-4.96-31.44-7.47c-12.7-3.04-25.42-6.04-38.1-9.15c-14.91-3.65-29.8-7.42-44.7-11.1
		c-7.58-1.87-15.19-3.6-22.76-5.53c-8.61-2.2-17.17-4.62-25.79-6.81c-10.18-2.58-20.34-5.29-30.49-8
		c-16.66-4.44-33.3-8.96-49.87-13.73c-15.79-4.54-31.61-9.02-47.36-13.69c-13.43-3.98-26.82-8.11-40.19-12.32
		c-11.57-3.64-23.09-7.41-34.6-11.24c-11.26-3.75-22.46-7.64-33.69-11.47c-2.16-0.74-4.33-1.46-6.48-2.23
		c-13.68-4.96-27.36-9.93-41.03-14.91c-8.99-3.27-18.01-6.47-26.96-9.84c-14.75-5.56-29.47-11.19-44.18-16.86
		c-10.69-4.12-21.34-8.33-31.99-12.54c-5.01-1.98-9.99-4.04-14.98-6.06c-8.62-3.47-17.28-6.87-25.87-10.41
		c-10.83-4.47-21.61-9.08-32.43-13.6c-9.07-3.8-18.18-7.5-27.22-11.36c-9.05-3.86-18.03-7.85-27.04-11.8
		c-8.88-3.89-17.76-7.79-26.63-11.71c-3.33-1.47-6.58-3.12-9.95-4.48c-7.51-3.02-14.82-6.45-22.14-9.9
		c-5.36-2.52-10.82-4.85-16.23-7.27c-7.38-3.3-14.76-6.59-22.12-9.94c-4.78-2.18-9.46-4.59-14.3-6.64c-3.73-1.58-7.32-3.44-11-5.11
		c-7.73-3.5-15.49-6.95-23.2-10.49c-5.51-2.53-10.97-5.18-16.46-7.76c-1.82-0.86-3.67-1.67-5.51-2.51
		c-7.71-3.54-15.44-7.05-23.14-10.64c-6.11-2.84-12.17-5.79-18.27-8.66c-3.78-1.78-7.58-3.52-11.38-5.25
		c-5.64-2.58-11.28-5.13-16.92-7.71c-3.8-1.74-7.59-3.5-11.38-5.24c-9.19-4.21-18.38-8.41-27.57-12.61
		c-3.8-1.74-7.59-3.5-11.39-5.22c-7.85-3.56-15.72-7.09-23.57-10.64c-6.38-2.89-12.75-5.82-19.15-8.67
		c-2.95-1.31-5.95-2.49-8.93-3.73C0,119.28,0,59.77,0,0c31.84,0,63.68,0,95.51,0c0.32,0.61,0.76,1.1,1.41,1.38
		c2.21,0.99,4.43,1.98,6.63,2.99c9.79,4.5,19.65,8.87,29.35,13.56c10.31,4.99,20.54,10.14,30.63,15.57
		c8.9,4.79,17.82,9.53,26.59,14.55c3.74,2.14,7.55,4.16,11.26,6.34c7.19,4.24,14.24,8.74,21.53,12.79
		c6.25,3.47,12.14,7.51,18.31,11.12c6.14,3.6,11.97,7.73,18.06,11.45c6.09,3.71,12,7.73,17.96,11.66c6.07,4,12.07,8.09,18.14,12.08
		c7.31,4.82,14.6,9.69,22.01,14.34c11.63,7.3,23.25,14.63,35.25,21.31c2.82,1.57,5.5,3.42,8.37,4.9
		c8.26,4.25,16.12,9.21,24.45,13.34c6.51,3.22,12.82,6.85,19.29,10.16c11.52,5.9,23.17,11.52,35,16.76
		c8.99,3.98,17.85,8.27,26.9,12.1c10.79,4.57,21.75,8.74,32.58,13.21c12.46,5.14,25.17,9.61,37.87,14.09
		c12.45,4.38,24.94,8.66,37.58,12.49c3.73,1.13,7.51,2.16,11.19,3.44c6.62,2.32,13.39,4.12,20.12,6.06
		c8.8,2.54,17.63,4.98,26.45,7.42c6.88,1.9,13.76,3.81,20.68,5.57c9.66,2.46,19.36,4.77,29.04,7.16c9.41,2.32,18.8,4.78,28.25,6.96
		c10.75,2.49,21.56,4.74,32.34,7.12c6.31,1.4,12.58,2.94,18.9,4.29c15.27,3.26,30.56,6.46,45.85,9.66
		c11.07,2.32,22.15,4.59,33.23,6.88c9.23,1.91,18.47,3.76,27.69,5.72c9.48,2.02,18.95,4.15,28.42,6.21
		c13.29,2.89,26.61,5.64,39.87,8.69c12.6,2.89,25.24,5.65,37.76,8.89c7.17,1.85,14.43,3.33,21.6,5.21
		c18.12,4.74,36.28,9.3,54.37,14.14c10.54,2.82,21.01,5.93,31.45,9.1c14.05,4.27,28.09,8.57,42.04,13.16
		c18.05,5.94,36.13,11.75,53.71,19.07c11.46,4.77,22.71,9.95,33.85,15.37c10.41,5.07,20.58,10.64,30.83,16.02
		c2.98,1.56,5.93,3.2,8.85,4.87c6.54,3.74,12.98,7.67,19.6,11.27c7.82,4.24,15.32,9.02,23.05,13.41c2.46,1.4,4.89,2.84,7.31,4.31
		c5.63,3.43,11.13,7.12,16.91,10.29c5.32,2.92,10.48,6.12,15.6,9.32c9.59,6,19.29,11.81,28.97,17.67
		c8.64,5.23,17.13,10.71,25.85,15.82c4.07,2.38,8.02,4.96,12.06,7.38c6.82,4.08,13.68,8.1,20.52,12.14
		c6.72,3.98,13.43,7.98,20.17,11.92c4.99,2.92,10.02,5.76,15.03,8.64c5.49,3.16,10.95,6.36,16.45,9.48
		c6.44,3.65,12.9,7.26,19.38,10.84c5.19,2.87,10.41,5.67,15.63,8.48c4.86,2.62,9.72,5.25,14.6,7.84c5,2.66,10.01,5.29,15.03,7.9
		c2.74,1.42,5.53,2.76,8.29,4.15c6.27,3.14,12.5,6.35,18.82,9.4c7.28,3.51,14.63,6.87,21.95,10.31c6.46,3.04,12.9,6.13,19.37,9.13
		c3.05,1.41,6.19,2.66,9.28,4c4.58,1.98,9.14,3.98,13.72,5.95c4.58,1.97,9.14,3.98,13.75,5.87c4.36,1.79,8.78,3.44,13.17,5.16
		c4.64,1.82,9.25,3.7,13.9,5.49c3.27,1.26,6.66,2.23,9.85,3.65c7.15,3.19,14.65,5.46,21.97,8.17c8.96,3.31,18.17,5.92,27.22,9
		c12.25,4.16,24.69,7.71,37.1,11.34c8.4,2.45,16.89,4.58,25.37,6.74c7.83,1.99,15.69,3.91,23.57,5.7
		c9.72,2.21,19.45,4.36,29.21,6.35c9.49,1.93,19.05,3.55,28.6,5.2c7.83,1.35,15.67,2.52,23.52,3.73c5.18,0.8,10.36,1.7,15.57,2.23
		C1914.4,725.79,1917.14,726.7,1920,726.47z"/>
	<path class="st2" d="M1920,726.47c-2.86,0.23-5.6-0.68-8.41-0.97c-5.21-0.54-10.39-1.44-15.57-2.23
		c-7.85-1.2-15.69-2.38-23.52-3.73c-9.55-1.65-19.1-3.27-28.6-5.2c-9.76-1.99-19.49-4.14-29.21-6.35
		c-7.88-1.79-15.73-3.71-23.57-5.7c-8.48-2.16-16.97-4.29-25.37-6.74c-12.41-3.62-24.85-7.17-37.1-11.34
		c-9.05-3.07-18.26-5.69-27.22-9c-7.33-2.71-14.82-4.98-21.97-8.17c-3.19-1.43-6.58-2.4-9.85-3.65c-4.65-1.79-9.27-3.67-13.9-5.49
		c-4.39-1.73-8.81-3.38-13.17-5.16c-4.61-1.89-9.17-3.9-13.75-5.87c-4.58-1.97-9.14-3.97-13.72-5.95c-3.09-1.34-6.22-2.58-9.28-4
		c-6.48-3-12.91-6.09-19.37-9.13c-7.31-3.44-14.67-6.8-21.95-10.31c-6.31-3.05-12.55-6.26-18.82-9.4c-2.76-1.38-5.55-2.72-8.29-4.15
		c-5.02-2.61-10.03-5.24-15.03-7.9c-4.88-2.59-9.74-5.22-14.6-7.84c-5.22-2.82-10.44-5.62-15.63-8.48
		c-6.48-3.58-12.94-7.19-19.38-10.84c-5.51-3.12-10.97-6.32-16.45-9.48c-5.01-2.88-10.05-5.72-15.03-8.64
		c-6.74-3.94-13.45-7.94-20.17-11.92c-6.84-4.04-13.69-8.07-20.52-12.14c-4.04-2.42-7.99-5-12.06-7.38
		c-8.72-5.1-17.21-10.58-25.85-15.82c-9.68-5.86-19.38-11.67-28.97-17.67c-5.13-3.21-10.28-6.41-15.6-9.32
		c-5.78-3.17-11.27-6.85-16.91-10.29c-2.41-1.47-4.85-2.91-7.31-4.31c-7.73-4.39-15.23-9.16-23.05-13.41
		c-6.62-3.6-13.06-7.52-19.6-11.27c-2.92-1.67-5.87-3.3-8.85-4.87c-10.26-5.38-20.42-10.95-30.83-16.02
		c-11.14-5.43-22.39-10.6-33.85-15.37c-17.58-7.32-35.66-13.13-53.71-19.07c-13.95-4.59-27.99-8.89-42.04-13.16
		c-10.44-3.18-20.91-6.28-31.45-9.1c-18.09-4.84-36.25-9.4-54.37-14.14c-7.17-1.88-14.44-3.36-21.6-5.21
		c-12.53-3.23-25.16-5.99-37.76-8.89c-13.26-3.04-26.58-5.79-39.87-8.69c-9.48-2.06-18.94-4.2-28.42-6.21
		c-9.22-1.96-18.46-3.81-27.69-5.72c-11.08-2.29-22.16-4.56-33.23-6.88c-15.29-3.2-30.57-6.4-45.85-9.66
		c-6.32-1.35-12.59-2.89-18.9-4.29c-10.78-2.39-21.59-4.63-32.34-7.12c-9.45-2.19-18.83-4.64-28.25-6.96
		c-9.68-2.39-19.38-4.7-29.04-7.16c-6.92-1.76-13.8-3.67-20.68-5.57c-8.83-2.44-17.66-4.88-26.45-7.42
		c-6.73-1.95-13.5-3.75-20.12-6.06c-3.68-1.29-7.46-2.31-11.19-3.44c-12.64-3.83-25.14-8.11-37.58-12.49
		c-12.7-4.47-25.41-8.95-37.87-14.09c-10.83-4.47-21.79-8.64-32.58-13.21c-9.05-3.84-17.91-8.12-26.9-12.1
		c-11.84-5.24-23.49-10.86-35-16.76c-6.47-3.31-12.78-6.94-19.29-10.16c-8.33-4.12-16.2-9.08-24.45-13.34
		c-2.87-1.48-5.54-3.33-8.37-4.9c-12-6.69-23.62-14.01-35.25-21.31c-7.42-4.66-14.7-9.53-22.01-14.34
		c-6.07-4-12.08-8.08-18.14-12.08c-5.96-3.93-11.87-7.95-17.96-11.66c-6.09-3.71-11.92-7.85-18.06-11.45
		c-6.16-3.61-12.05-7.65-18.31-11.12c-7.3-4.05-14.34-8.55-21.53-12.79c-3.71-2.19-7.52-4.2-11.26-6.34
		c-8.77-5.01-17.69-9.76-26.59-14.55c-10.09-5.43-20.32-10.59-30.63-15.57c-9.7-4.69-19.56-9.06-29.35-13.56
		c-2.2-1.01-4.42-2-6.63-2.99C96.28,1.1,95.83,0.61,95.51,0c100.37,0,200.74,0,301.11,0c0.45,0.89,1.23,1.4,2.1,1.82
		c6.78,3.26,13.55,6.53,20.32,9.81c10.42,5.05,20.8,10.19,31.41,14.84c6.04,2.65,12.08,5.3,18.13,7.91
		c6.06,2.62,12.13,5.19,18.2,7.79c5.07,2.17,10.23,4.18,15.38,6.09c4.53,1.67,9.09,3.34,13.64,4.98c11.67,4.2,23.43,8.1,35.27,11.78
		c6.42,2,12.89,3.86,19.37,5.69c5.18,1.46,10.42,2.72,15.61,4.16c5.05,1.41,10.12,2.75,15.19,4.08c7.17,1.88,14.39,3.52,21.6,5.2
		c9.83,2.3,19.72,4.32,29.59,6.41c4.34,0.92,8.71,1.73,13.07,2.53c5.82,1.07,11.65,2.06,17.47,3.13c5.69,1.04,11.34,2.4,17.07,3.13
		c5.88,0.75,11.65,2.07,17.51,2.9c6.12,0.87,12.21,1.95,18.31,2.94c4.51,0.73,9.02,1.47,13.53,2.22c3.58,0.59,7.16,1.24,10.75,1.79
		c4.38,0.68,8.79,1.18,13.16,1.96c6.49,1.15,12.94,2.51,19.42,3.7c8.07,1.48,16.2,2.65,24.22,4.38c10.79,2.32,21.66,4.19,32.4,6.76
		c13.61,3.27,27.34,6.05,40.86,9.69c2.08,0.56,4.28,0.74,6.29,1.45c5.35,1.89,10.92,2.95,16.34,4.54
		c7.89,2.31,15.85,4.36,23.68,6.83c5.91,1.86,11.9,3.42,17.76,5.45c6.33,2.2,12.79,4.1,19.2,6.08c7.08,2.19,14.01,4.76,21.01,7.16
		c3.05,1.05,6.07,2.26,9.13,3.18c3.74,1.13,7.21,2.96,11.02,3.88c1.95,0.47,3.82,1.27,5.69,2.01c4.88,1.91,9.74,3.85,14.6,5.79
		c8.25,3.29,16.54,6.46,24.71,9.94c5.19,2.21,10.29,4.64,15.53,6.73c2.24,0.9,4.33,2.15,6.53,3.16c2.69,1.23,5.46,2.29,8.11,3.58
		c4.11,2,8.28,3.85,12.46,5.7c3.93,1.73,7.68,3.86,11.53,5.76c3.01,1.49,6.09,2.83,9.08,4.36c6.71,3.42,13.29,7.12,20.11,10.3
		c3.19,1.49,6.02,3.52,9.21,4.99c4.03,1.85,7.93,4,11.78,6.21c7.24,4.15,14.76,7.79,21.84,12.24c1.92,1.21,4.23,1.85,6.06,3.17
		c4.5,3.24,9.56,5.47,14.26,8.34c5.5,3.36,11.2,6.4,16.82,9.57c4.79,2.71,9.58,5.43,14.37,8.12c3.75,2.11,7.66,3.96,11.22,6.33
		c4.61,3.08,9.63,5.36,14.35,8.24c6.07,3.71,12.41,6.97,18.69,10.31c10.57,5.62,21.16,11.21,31.8,16.71
		c5.13,2.65,10.38,5.08,15.59,7.56c4.98,2.36,9.99,4.66,14.99,6.98c2.55,1.19,4.94,2.68,7.68,3.51c1.64,0.5,3.07,1.65,4.68,2.34
		c5.31,2.27,10.66,4.47,15.99,6.68c6.84,2.84,13.59,5.93,20.55,8.45c11.77,4.25,23.35,9.04,35.4,12.53c0.39,0.11,0.75,0.3,1.13,0.44
		c3.66,1.33,7.29,2.77,11,3.96c5,1.61,10.06,3.04,15.09,4.55c8.52,2.56,16.99,5.27,25.56,7.64c9.34,2.59,18.75,4.95,28.16,7.27
		c13.85,3.42,27.69,6.88,41.71,9.61c12.94,2.53,25.86,5.13,38.79,7.71c7.52,1.5,15.06,2.91,22.6,4.27
		c6.75,1.22,13.39,3.01,20.16,4.16c10.61,1.8,21.03,4.56,31.65,6.39c6.61,1.14,13.14,2.84,19.76,4.08
		c6.34,1.18,12.61,2.8,18.89,4.29c4.71,1.12,9.48,1.98,14.18,3.2c4.81,1.25,9.79,1.84,14.64,2.96c13.39,3.08,26.75,6.24,40.11,9.45
		c3.8,0.91,7.55,1.97,11.41,2.63c1.71,0.29,3.36,0.96,5.03,1.46c0.77,0.23,1.54,0.49,2.32,0.68c5.22,1.28,10.46,2.5,15.67,3.84
		c9.91,2.55,19.82,5.13,29.7,7.78c4.02,1.08,7.98,2.42,11.97,3.61c2.07,0.61,4.12,1.34,6.24,1.68c2.83,0.46,5.45,1.49,8.12,2.41
		c0.76,0.26,1.49,0.64,2.27,0.83c9.17,2.28,18.08,5.38,27.06,8.26c7.69,2.46,15.4,4.88,22.98,7.69c1.76,0.65,3.53,1.4,5.49,1.17
		C1920,572.76,1920,649.62,1920,726.47z"/>
	<path class="st3" d="M0,178.79c2.98,1.24,5.99,2.42,8.93,3.73c6.4,2.85,12.76,5.78,19.15,8.67c7.86,3.55,15.72,7.08,23.57,10.64
		c3.81,1.72,7.59,3.49,11.39,5.22c9.19,4.21,18.38,8.4,27.57,12.61c3.8,1.74,7.59,3.5,11.38,5.24c5.64,2.58,11.28,5.13,16.92,7.71
		c3.8,1.74,7.6,3.47,11.38,5.25c6.1,2.87,12.16,5.82,18.27,8.66c7.7,3.58,15.42,7.1,23.14,10.64c1.83,0.84,3.68,1.65,5.51,2.51
		c5.49,2.58,10.95,5.23,16.46,7.76c7.71,3.54,15.47,6.99,23.2,10.49c3.68,1.67,7.27,3.53,11,5.11c4.84,2.05,9.52,4.46,14.3,6.64
		c7.36,3.35,14.74,6.63,22.12,9.94c5.41,2.42,10.86,4.75,16.23,7.27c7.32,3.44,14.63,6.88,22.14,9.9c3.37,1.36,6.62,3.01,9.95,4.48
		c8.87,3.92,17.75,7.82,26.63,11.71c9.01,3.95,18,7.94,27.04,11.8c9.04,3.86,18.15,7.57,27.22,11.36
		c10.81,4.53,21.59,9.13,32.43,13.6c8.59,3.55,17.25,6.94,25.87,10.41c5,2.01,9.97,4.08,14.98,6.06c10.65,4.2,21.3,8.42,31.99,12.54
		c14.71,5.67,29.43,11.31,44.18,16.86c8.95,3.37,17.97,6.57,26.96,9.84c13.68,4.97,27.35,9.95,41.03,14.91
		c2.15,0.78,4.32,1.5,6.48,2.23c11.23,3.83,22.43,7.72,33.69,11.47c11.51,3.83,23.03,7.6,34.6,11.24
		c13.37,4.21,26.76,8.34,40.19,12.32c15.76,4.67,31.57,9.15,47.36,13.69c16.57,4.77,33.21,9.29,49.87,13.73
		c10.15,2.71,20.3,5.41,30.49,8c8.62,2.19,17.17,4.61,25.79,6.81c7.56,1.93,15.18,3.66,22.76,5.53c14.9,3.68,29.79,7.45,44.7,11.1
		c12.69,3.11,25.4,6.11,38.1,9.15c10.48,2.5,20.95,5.02,31.44,7.47c13.24,3.08,26.5,6.08,39.75,9.15
		c13.38,3.11,26.74,6.27,40.12,9.39c11.54,2.69,23.08,5.35,34.62,8.03c11.67,2.71,23.34,5.43,35.01,8.15
		c12.59,2.94,25.18,5.85,37.76,8.83c13.1,3.1,26.21,6.18,39.29,9.4c26.81,6.6,53.62,13.21,80.39,19.98
		c15.01,3.8,29.95,7.92,44.9,11.96c13.39,3.62,26.78,7.27,40.13,11.02c8.04,2.26,16.02,4.73,24.03,7.12
		c10.2,3.04,20.4,6.09,30.59,9.15c2.19,0.66,4.36,1.43,6.53,2.14c14.86,4.86,29.79,9.54,44.57,14.64
		c13.25,4.57,26.48,9.18,39.6,14.13c13.62,5.13,27.2,10.34,40.69,15.82c8.11,3.29,16.14,6.8,24.18,10.26
		c6.31,2.71,12.64,5.39,18.87,8.28c8.19,3.8,16.31,7.76,24.42,11.73c6.54,3.2,13.09,6.4,19.53,9.79
		c11.8,6.22,23.51,12.59,35.02,19.35c13.37,7.85,26.53,16.01,39.35,24.72c6.46,4.39,12.71,9.08,19.04,13.64
		c2.84,2.05,5.71,4.05,8.48,6.19c4.04,3.13,8,6.36,12,9.54c3.79,3.01,7.55,6.06,11.1,9.37c2.55,2.38,5.36,4.49,8.02,6.76
		c2.76,2.36,5.47,4.79,8.23,7.15c5.82,4.98,11.6,10.02,17.68,14.71c5.97,4.6,11.74,9.44,17.69,14.06c4.36,3.38,8.85,6.6,13.33,9.83
		c7.31,5.27,14.57,10.63,22.03,15.68c7.69,5.21,15.6,10.1,23.43,15.1c1.02,0.65,2.15,1.12,3.23,1.67c0,29.39,0,58.79,0,88.18
		c-9.49-2.57-18.96-5.22-28.48-7.69c-15.25-3.96-30.55-7.73-45.79-11.74c-5.99-1.58-12.01-3.02-18-4.58
		c-12.77-3.33-25.65-6.2-38.48-9.29c-2.62-0.63-5.18-1.5-7.79-2.14c-9.68-2.38-19.37-4.71-29.06-7.05
		c-7.33-1.77-14.65-3.54-21.99-5.28c-9.56-2.27-19.13-4.51-28.69-6.78c-7.6-1.8-15.19-3.63-22.77-5.46
		c-8.11-1.95-16.21-3.94-24.32-5.88c-12.44-2.99-24.88-5.96-37.32-8.93c-11.26-2.68-22.52-5.42-33.8-8.01
		c-11.82-2.71-23.54-5.78-35.22-9.01c-8.69-2.41-17.47-4.49-26.19-6.83c-10.28-2.75-20.53-5.59-30.79-8.43
		c-8.43-2.34-16.86-4.71-25.27-7.14c-5.95-1.72-11.87-3.58-17.81-5.33c-5.94-1.75-11.91-3.39-17.83-5.2
		c-5.15-1.57-10.24-3.34-15.37-4.98c-3.85-1.23-7.72-2.41-11.57-3.61c-3.73-1.16-7.47-2.3-11.18-3.51c-1.02-0.33-2-0.83-2.93-1.35
		c-9.18-5.11-18.36-10.23-27.52-15.36c-8.7-4.87-17.4-9.72-26.06-14.66c-5.96-3.4-11.84-6.95-17.78-10.4
		c-2.33-1.35-4.76-2.5-7.08-3.9c-6.8-4.09-13.72-7.99-20.57-12.01c-6.85-4.02-13.66-8.11-20.5-12.16
		c-9.04-5.36-18.09-10.68-27.11-16.06c-10.29-6.14-20.55-12.34-30.84-18.48c-3.23-1.93-6.65-3.57-9.77-5.66
		c-4.26-2.85-8.87-5.09-13.24-7.73c-4.95-3-10.03-5.79-15.08-8.63c-6.33-3.57-12.68-7.11-19.03-10.65
		c-3.18-1.77-6.36-3.54-9.56-5.25c-8.08-4.32-16.15-8.64-24.26-12.89c-4.42-2.32-8.91-4.51-13.37-6.74
		c-7.47-3.74-14.93-7.5-22.43-11.18c-7.14-3.5-14.27-7-21.5-10.31c-8.94-4.09-17.99-7.91-26.95-11.96
		c-13.75-6.22-27.71-11.96-41.73-17.51c-8.26-3.27-16.61-6.35-24.94-9.45c-9.97-3.72-19.96-7.39-29.96-11.04
		c-2.4-0.88-4.85-1.62-7.28-2.41c-9.35-3.04-18.65-6.25-28.07-9.06c-11.23-3.35-22.31-7.19-33.7-10.01
		c-5.09-1.26-10.09-2.91-15.12-4.46c-1.41-0.43-2.77-1.05-4.1-1.69c-3.99-1.95-7.87-4.17-11.95-5.89
		c-8.58-3.62-16.61-8.36-25.21-11.94c-4.84-2.02-9.57-4.33-14.26-6.69c-4.22-2.13-8.67-3.71-12.96-5.66
		c-8.84-4.01-17.88-7.51-26.96-10.9c-7.45-2.78-14.94-5.43-22.45-8.05c-8.53-2.98-17.05-5.96-25.63-8.77
		c-11.02-3.6-22.06-7.11-33.15-10.5c-12.62-3.86-25.28-7.61-37.96-11.29c-8.41-2.44-16.88-4.65-25.31-7
		c-9.73-2.71-19.44-5.52-29.18-8.19c-5.97-1.64-12-3.06-17.99-4.64c-9.51-2.51-18.99-5.12-28.5-7.62
		c-6.38-1.67-12.79-3.19-19.17-4.84c-10.3-2.66-20.58-5.4-30.88-8.06c-8.21-2.12-16.44-4.18-24.67-6.24
		c-10.97-2.75-22.01-5.25-32.91-8.28c-6.62-1.84-13.35-3.21-19.97-5.06c-8.55-2.39-17.22-4.35-25.83-6.53
		c-8.35-2.12-16.69-4.31-25.04-6.41c-4.05-1.02-8.14-1.86-12.18-2.88c-17.1-4.31-34.2-8.63-51.29-13.01
		c-5.35-1.37-10.64-2.97-15.98-4.37c-5.6-1.48-11.23-2.81-16.83-4.28c-5.73-1.5-11.41-3.23-17.17-4.61
		c-8.39-2-16.64-4.48-24.95-6.74c-10.01-2.71-19.99-5.55-29.96-8.37c-8.17-2.31-16.31-4.69-24.47-7.03
		c-1.55-0.45-3.11-0.87-4.66-1.34c-10.43-3.2-20.9-6.3-31.28-9.66c-8.85-2.86-17.73-5.64-26.43-8.96c-3.9-1.49-7.92-2.63-11.85-4.04
		c-4.44-1.59-8.83-3.3-13.24-4.97c-5.16-1.96-10.29-4.03-15.49-5.88c-10.16-3.61-20.14-7.67-30.18-11.6
		c-5.52-2.16-11-4.44-16.53-6.54c-4.78-1.81-9.46-3.88-14.25-5.65c-1.64-0.61-3.24-1.36-5.05-1.34C0,290.43,0,234.61,0,178.79z"/>
	<path class="st4" d="M1920,495.91c-1.96,0.23-3.73-0.52-5.49-1.17c-7.58-2.81-15.29-5.23-22.98-7.69
		c-8.98-2.88-17.9-5.98-27.06-8.26c-0.78-0.19-1.51-0.57-2.27-0.83c-2.67-0.92-5.29-1.95-8.12-2.41c-2.11-0.35-4.17-1.07-6.24-1.68
		c-3.99-1.19-7.95-2.53-11.97-3.61c-9.88-2.66-19.79-5.23-29.7-7.78c-5.21-1.34-10.45-2.56-15.67-3.84
		c-0.78-0.19-1.55-0.45-2.32-0.68c-1.68-0.5-3.32-1.16-5.03-1.46c-3.86-0.66-7.61-1.72-11.41-2.63
		c-13.36-3.21-26.72-6.37-40.11-9.45c-4.85-1.11-9.83-1.71-14.64-2.96c-4.7-1.22-9.46-2.08-14.18-3.2
		c-6.28-1.5-12.55-3.11-18.89-4.29c-6.62-1.24-13.15-2.94-19.76-4.08c-10.62-1.83-21.04-4.58-31.65-6.39
		c-6.77-1.15-13.42-2.94-20.16-4.16c-7.55-1.36-15.08-2.77-22.6-4.27c-12.93-2.58-25.85-5.18-38.79-7.71
		c-14.01-2.74-27.85-6.19-41.71-9.61c-9.41-2.33-18.82-4.68-28.16-7.27c-8.57-2.38-17.04-5.08-25.56-7.64
		c-5.03-1.51-10.09-2.94-15.09-4.55c-3.71-1.2-7.34-2.63-11-3.96c-0.38-0.14-0.74-0.32-1.13-0.44c-12.04-3.49-23.63-8.28-35.4-12.53
		c-6.96-2.51-13.71-5.61-20.55-8.45c-5.34-2.21-10.68-4.41-15.99-6.68c-1.6-0.68-3.03-1.84-4.68-2.34
		c-2.74-0.83-5.13-2.33-7.68-3.51c-5-2.32-10.01-4.62-14.99-6.98c-5.22-2.48-10.46-4.91-15.59-7.56
		c-10.64-5.5-21.23-11.09-31.8-16.71c-6.28-3.34-12.63-6.61-18.69-10.31c-4.71-2.88-9.74-5.17-14.35-8.24
		c-3.56-2.38-7.48-4.23-11.22-6.33c-4.8-2.7-9.58-5.41-14.37-8.12c-5.61-3.18-11.31-6.21-16.82-9.57c-4.7-2.87-9.77-5.1-14.26-8.34
		c-1.83-1.32-4.14-1.96-6.06-3.17c-7.07-4.45-14.6-8.09-21.84-12.24c-3.85-2.21-7.75-4.36-11.78-6.21
		c-3.19-1.47-6.02-3.51-9.21-4.99c-6.82-3.18-13.4-6.88-20.11-10.3c-2.99-1.53-6.07-2.87-9.08-4.36c-3.85-1.9-7.61-4.03-11.53-5.76
		c-4.18-1.85-8.35-3.7-12.46-5.7c-2.66-1.29-5.43-2.35-8.11-3.58c-2.2-1.01-4.29-2.27-6.53-3.16c-5.25-2.1-10.34-4.52-15.53-6.73
		c-8.17-3.48-16.46-6.65-24.71-9.94c-4.86-1.94-9.72-3.89-14.6-5.79c-1.87-0.73-3.75-1.54-5.69-2.01
		c-3.81-0.92-7.28-2.75-11.02-3.88c-3.06-0.92-6.08-2.14-9.13-3.18c-7-2.4-13.93-4.97-21.01-7.16c-6.41-1.98-12.87-3.88-19.2-6.08
		c-5.87-2.04-11.86-3.59-17.76-5.45c-7.83-2.47-15.79-4.53-23.68-6.83c-5.43-1.59-10.99-2.65-16.34-4.54
		c-2.02-0.71-4.21-0.89-6.29-1.45c-13.53-3.64-27.25-6.42-40.86-9.69c-10.74-2.58-21.61-4.44-32.4-6.76
		c-8.02-1.73-16.15-2.9-24.22-4.38c-6.48-1.19-12.93-2.55-19.42-3.7c-4.36-0.77-8.78-1.28-13.16-1.96
		c-3.59-0.56-7.16-1.2-10.75-1.79c-4.51-0.75-9.02-1.48-13.53-2.22c-6.1-0.99-12.19-2.07-18.31-2.94
		c-5.86-0.83-11.63-2.15-17.51-2.9c-5.73-0.73-11.38-2.08-17.07-3.13c-5.82-1.06-11.65-2.06-17.47-3.13
		c-4.37-0.8-8.73-1.61-13.07-2.53c-9.88-2.08-19.77-4.11-29.59-6.41c-7.21-1.68-14.43-3.32-21.6-5.2
		c-5.07-1.33-10.14-2.67-15.19-4.08c-5.19-1.45-10.43-2.7-15.61-4.16c-6.48-1.83-12.95-3.69-19.37-5.69
		c-11.84-3.69-23.6-7.59-35.27-11.78c-4.55-1.64-9.11-3.31-13.64-4.98c-5.16-1.9-10.31-3.91-15.38-6.09
		c-6.07-2.6-12.14-5.17-18.2-7.79c-6.05-2.62-12.09-5.26-18.13-7.91c-10.61-4.65-20.98-9.79-31.41-14.84
		c-6.77-3.28-13.54-6.55-20.32-9.81c-0.87-0.42-1.65-0.93-2.1-1.82c120.07,0,240.13,0,360.2,0c0.47,0.25,0.91,0.6,1.41,0.73
		c8.33,2.23,16.65,4.51,25,6.61c12.54,3.16,25.09,6.29,37.67,9.28c15.2,3.61,30.43,7.1,45.65,10.58c4.33,0.99,8.7,1.81,13.06,2.63
		c8.6,1.6,17.2,3.16,25.8,4.72c6.35,1.15,12.71,2.32,19.07,3.42c8.62,1.48,17.25,2.84,25.87,4.34c8.22,1.43,16.41,3.02,24.62,4.47
		c12.72,2.25,25.45,4.41,38.17,6.65c9.28,1.64,18.55,3.3,27.8,5.04c9.66,1.82,19.31,3.65,28.93,5.64
		c10.54,2.19,21.07,4.49,31.56,6.9c8.27,1.9,16.5,3.96,24.72,6.08c8.48,2.19,16.87,4.73,25.07,7.81c6.43,2.42,12.77,5.08,19.14,7.63
		c13.01,5.2,25.86,10.79,38.61,16.61c10.3,4.7,20.48,9.66,30.65,14.63c7.38,3.61,14.65,7.44,21.96,11.17
		c2.76,1.41,5.56,2.75,8.29,4.22c8.53,4.61,17.05,9.26,25.55,13.93c4.96,2.73,9.9,5.49,14.81,8.31c5.96,3.42,11.87,6.91,17.81,10.38
		c9.19,5.36,18.39,10.71,27.58,16.09c4.65,2.72,9.25,5.53,13.9,8.25c8.95,5.24,17.93,10.43,26.88,15.67
		c6.51,3.81,12.93,7.77,19.48,11.5c9.24,5.27,18.54,10.46,27.87,15.58c10.16,5.57,20.3,11.19,30.6,16.49
		c17.51,9,35.13,17.78,52.97,26.11c3.66,1.71,7.31,3.45,11.02,5.06c11,4.77,22.03,9.47,33.04,14.22
		c12.75,5.5,25.71,10.48,38.67,15.42c11.83,4.51,23.76,8.78,35.71,12.98c14.75,5.18,29.62,10.04,44.66,14.31
		c15.94,4.52,31.98,8.68,48.12,12.44c13.77,3.21,27.54,6.38,41.39,9.24c12.92,2.67,25.85,5.28,38.79,7.85
		c9.5,1.89,19.03,3.67,28.54,5.48c5.82,1.11,11.63,2.24,17.46,3.28c11.52,2.05,23.06,4.03,34.58,6.07
		c6.89,1.22,13.76,2.49,20.65,3.74C1920,426.34,1920,461.12,1920,495.91z"/>
	<path class="st5" d="M1920,391.55c-6.88-1.25-13.76-2.52-20.65-3.74c-11.52-2.04-23.06-4.02-34.58-6.07
		c-5.83-1.04-11.64-2.17-17.46-3.28c-9.52-1.81-19.04-3.59-28.54-5.48c-12.94-2.57-25.87-5.18-38.79-7.85
		c-13.85-2.86-27.62-6.03-41.39-9.24c-16.14-3.76-32.18-7.92-48.12-12.44c-15.04-4.27-29.91-9.12-44.66-14.31
		c-11.95-4.2-23.88-8.47-35.71-12.98c-12.97-4.94-25.92-9.93-38.67-15.42c-11.01-4.75-22.04-9.45-33.04-14.22
		c-3.71-1.61-7.36-3.35-11.02-5.06c-17.84-8.33-35.46-17.11-52.97-26.11c-10.3-5.3-20.44-10.92-30.6-16.49
		c-9.33-5.12-18.63-10.3-27.87-15.58c-6.55-3.74-12.98-7.69-19.48-11.5c-8.95-5.24-17.93-10.43-26.88-15.67
		c-4.65-2.72-9.25-5.53-13.9-8.25c-9.18-5.38-18.38-10.73-27.58-16.09c-5.94-3.46-11.85-6.96-17.81-10.38
		c-4.91-2.82-9.85-5.58-14.81-8.31c-8.5-4.67-17.02-9.31-25.55-13.93c-2.73-1.47-5.53-2.81-8.29-4.22
		c-7.32-3.73-14.59-7.56-21.96-11.17c-10.17-4.98-20.35-9.93-30.65-14.63c-12.75-5.82-25.6-11.41-38.61-16.61
		c-6.38-2.55-12.72-5.21-19.14-7.63c-8.2-3.08-16.59-5.62-25.07-7.81c-8.21-2.12-16.45-4.18-24.72-6.08
		c-10.5-2.41-21.02-4.71-31.56-6.9c-9.62-2-19.27-3.83-28.93-5.64c-9.26-1.74-18.53-3.41-27.8-5.04
		c-12.72-2.24-25.45-4.4-38.17-6.65c-8.21-1.45-16.4-3.04-24.62-4.47c-8.61-1.5-17.25-2.86-25.87-4.34
		c-6.37-1.09-12.72-2.26-19.07-3.42c-8.6-1.56-17.21-3.11-25.8-4.72c-4.37-0.82-8.73-1.64-13.06-2.63
		c-15.23-3.48-30.46-6.96-45.65-10.58c-12.58-2.99-25.13-6.11-37.67-9.28c-8.36-2.11-16.68-4.39-25-6.61
		c-0.5-0.13-0.94-0.48-1.41-0.73c239.6,0,479.19,0,718.79,0c1.82,1.71,4.21,2.32,6.4,3.32c3.55,1.62,7.19,3.01,10.68,4.8
		c3.19,1.64,6.66,2.73,9.78,4.6c1.25,0.75,2.81,0.95,4.14,1.59c8.37,4.05,16.77,8.02,25.03,12.28c8.5,4.38,16.86,9.04,25.28,13.6
		c9.12,4.94,18.03,10.27,26.88,15.68c7.81,4.77,15.64,9.52,23.3,14.56c9.57,6.29,19.26,12.38,28.64,18.95
		c9.49,6.64,19.04,13.18,28.55,19.78c7.53,5.22,15.04,10.46,22.56,15.69c3.54,2.46,7.05,4.96,10.62,7.38
		c6.13,4.16,12.26,8.3,18.44,12.39c7.19,4.75,14.43,9.42,21.63,14.15c11.49,7.54,23.61,14.05,35.24,21.37
		c1.36,0.85,2.8,1.58,4.39,2.02c1.28,0.35,2.58,0.9,3.66,1.64c3.9,2.68,8.05,4.9,12.27,7c6.63,3.3,13.14,6.85,19.85,9.99
		c12.57,5.89,25.24,11.54,38.07,16.86c13.58,5.63,27.35,10.74,41.23,15.56c7.89,2.74,15.88,5.23,23.83,7.8
		c1.27,0.41,2.52,1.01,3.92,0.9C1920,291.78,1920,341.66,1920,391.55z"/>
	<path class="st5" d="M0,475.69c3.21,0.5,6.29,1.48,9.4,2.39c5.82,1.7,11.66,3.34,17.48,5.04c13.06,3.83,26.14,7.59,39.16,11.55
		c9.93,3.02,19.78,6.29,29.66,9.47c6.03,1.94,12.08,3.81,18.05,5.91c6.35,2.23,12.73,4.4,19.01,6.85c6.51,2.55,13,5.19,19.84,6.89
		c4.57,1.13,8.92,3.03,13.24,4.94c3.08,1.37,6.24,2.54,9.37,3.79c12.26,4.9,24.45,9.98,36.55,15.28
		c10.37,4.54,20.6,9.38,30.86,14.14c5.26,2.44,10.52,4.88,15.68,7.52c6.83,3.49,13.76,6.84,20.37,10.73
		c5.33,3.15,10.74,6.17,16.06,9.34c6.94,4.13,13.96,8.14,20.83,12.39c6.19,3.82,12.26,7.85,18.33,11.85
		c6.18,4.07,12.35,8.15,18.43,12.37c7.08,4.92,14,10.07,21.09,14.96c3.88,2.67,7.65,5.51,11.5,8.21c4.51,3.17,8.91,6.52,13.35,9.8
		c5.85,4.31,11.63,8.7,17.5,12.98c9.9,7.21,19.94,14.22,29.73,21.58c6.14,4.61,12.52,8.87,18.67,13.46
		c2.16,1.61,4.52,2.94,6.63,4.62c8.66,6.89,18.04,12.69,27.38,18.56c8.09,5.09,16.07,10.37,24.13,15.51
		c8.4,5.35,16.8,10.72,25.29,15.94c10.32,6.35,20.71,12.6,31.11,18.81c5.78,3.45,11.65,6.76,17.51,10.08
		c8.79,4.99,17.57,9.97,26.41,14.88c6,3.33,12.07,6.55,18.13,9.77c8.69,4.62,17.36,9.27,26.11,13.77
		c6.58,3.39,13.26,6.61,19.92,9.84c5.94,2.88,11.91,5.69,17.9,8.48c5.61,2.62,11.22,5.24,16.88,7.75
		c10.1,4.48,20.21,8.94,30.38,13.27c7.19,3.06,14.46,5.92,21.72,8.82c6.64,2.64,13.26,5.32,19.96,7.79
		c11.89,4.37,23.8,8.69,35.77,12.83c10.57,3.66,21.19,7.18,31.86,10.52c15.94,4.99,31.94,9.82,48.06,14.22
		c17.29,4.72,34.62,9.3,52.04,13.54c20.03,4.87,40.08,9.67,60.25,13.91c16.48,3.47,32.91,7.17,49.38,10.69
		c12.91,2.76,25.85,5.38,38.78,8.06c17.28,3.58,34.56,7.14,51.84,10.76c20.7,4.33,41.42,8.62,62.09,13.11
		c18.96,4.11,37.85,8.56,56.81,12.67c11.46,2.48,22.83,5.29,34.24,7.97c12.33,2.9,24.68,5.74,36.98,8.76
		c10.47,2.57,20.88,5.37,31.32,8.03c5.75,1.46,11.53,2.77,17.27,4.26c7.17,1.86,14.31,3.84,21.47,5.75c1.43,0.38,2.88,0.66,4.33,1
		c7.69,1.78,14.71,5.24,21.64,8.87c6.08,3.18,12.12,6.45,18.09,9.84c7.03,4,13.96,8.16,20.91,12.28c2.9,1.72,5.74,3.52,8.62,5.28
		c1.15,0.7,2.38,1.3,2.92,2.67c-150.56,0-301.11,0-451.67,0c-1.26-1.39-3.05-1.67-4.7-2.19c-5.15-1.6-10.35-3.04-15.46-4.72
		c-14.6-4.8-29.22-9.56-43.75-14.58c-13.38-4.62-26.67-9.48-39.95-14.37c-8.73-3.21-17.38-6.62-26.04-9.99
		c-7.16-2.79-14.31-5.59-21.42-8.48c-9.61-3.91-19.22-7.83-28.77-11.89c-6.2-2.63-12.24-5.64-18.45-8.26
		c-10.81-4.56-21.28-9.86-31.87-14.88c-14.37-6.82-28.33-14.46-42.37-21.94c-5.35-2.85-10.65-5.8-15.91-8.82
		c-7.47-4.3-14.92-8.64-22.32-13.08c-10.28-6.18-20.51-12.43-30.73-18.71c-7-4.31-13.94-8.72-20.91-13.08
		c-10.97-6.86-21.93-13.73-32.9-20.57c-6.63-4.13-13.26-8.27-19.95-12.32c-8.06-4.89-16.18-9.7-24.28-14.52
		c-3.36-2-6.72-4-10.12-5.91c-5.52-3.1-11.14-6.05-16.61-9.23c-8.63-5.02-17.45-9.66-26.32-14.2c-16.2-8.3-32.45-16.49-49.12-23.85
		c-6.66-2.94-13.2-6.14-19.89-8.99c-10.66-4.55-21.39-8.94-32.11-13.33c-13.35-5.47-26.83-10.59-40.48-15.24
		c-13.66-4.65-27.48-8.75-41.33-12.77c-15.4-4.47-30.9-8.57-46.44-12.5c-14.5-3.66-29.06-7.05-43.6-10.55
		c-5.5-1.32-10.99-2.67-16.52-3.9c-12.62-2.79-25.26-5.51-37.89-8.27c-7.1-1.55-14.19-3.2-21.3-4.69
		c-16.07-3.39-32.17-6.66-48.23-10.07c-14.36-3.05-28.69-6.2-43.03-9.32c-12.5-2.72-25-5.43-37.49-8.19
		c-5.65-1.25-11.27-2.68-16.92-3.96c-11.3-2.55-22.54-5.36-33.73-8.39c-8.58-2.33-17.14-4.73-25.71-7.1C0,609.98,0,542.83,0,475.69z
		"/>
	<path class="st4" d="M0,677.12c8.57,2.37,17.13,4.77,25.71,7.1c11.18,3.03,22.42,5.84,33.73,8.39c5.65,1.28,11.26,2.71,16.92,3.96
		c12.49,2.77,24.99,5.48,37.49,8.19c14.34,3.12,28.67,6.27,43.03,9.32c16.07,3.41,32.16,6.68,48.23,10.07
		c7.11,1.5,14.2,3.14,21.3,4.69c12.63,2.76,25.27,5.48,37.89,8.27c5.52,1.22,11.02,2.57,16.52,3.9c14.54,3.5,29.1,6.89,43.6,10.55
		c15.54,3.92,31.04,8.03,46.44,12.5c13.85,4.02,27.68,8.12,41.33,12.77c13.66,4.65,27.13,9.78,40.48,15.24
		c10.72,4.39,21.45,8.78,32.11,13.33c6.69,2.85,13.24,6.06,19.89,8.99c16.66,7.35,32.92,15.55,49.12,23.85
		c8.87,4.54,17.7,9.19,26.32,14.2c5.47,3.18,11.09,6.12,16.61,9.23c3.41,1.91,6.77,3.91,10.12,5.91c8.1,4.82,16.22,9.63,24.28,14.52
		c6.68,4.05,13.31,8.19,19.95,12.32c10.98,6.84,21.94,13.71,32.9,20.57c6.97,4.36,13.9,8.77,20.91,13.08
		c10.21,6.28,20.45,12.54,30.73,18.71c7.39,4.44,14.84,8.79,22.32,13.08c5.26,3.02,10.56,5.97,15.91,8.82
		c14.04,7.48,28,15.11,42.37,21.94c10.59,5.03,21.06,10.32,31.87,14.88c6.21,2.62,12.25,5.63,18.45,8.26
		c9.55,4.06,19.16,7.98,28.77,11.89c7.11,2.89,14.26,5.7,21.42,8.48c8.67,3.37,17.32,6.79,26.04,9.99
		c13.28,4.89,26.57,9.75,39.95,14.37c14.53,5.02,29.15,9.78,43.75,14.58c5.12,1.68,10.32,3.12,15.46,4.72
		c1.65,0.51,3.45,0.79,4.7,2.19c-111.7,0-223.41,0-335.11,0c-0.43-0.87-1.11-1.51-1.88-2.08c-3.45-2.56-6.88-5.15-10.36-7.68
		c-3.05-2.21-6.26-4.21-9.22-6.55c-6.13-4.84-12.41-9.45-18.85-13.86c-2.77-1.9-5.27-4.19-8.06-6.06
		c-7.27-4.87-14.44-9.88-21.63-14.88c-6.18-4.3-12.45-8.45-18.93-12.31c-6.36-3.78-12.29-8.25-18.76-11.89
		c-5.16-2.9-10.04-6.29-15.24-9.11c-8.17-4.42-16.11-9.28-24.56-13.19c-0.61-0.28-1.16-0.69-1.76-0.99
		c-4.79-2.44-9.56-4.9-14.38-7.27c-3.14-1.54-6.35-2.94-9.54-4.38c-6.49-2.93-12.94-5.97-19.51-8.73
		c-6.32-2.65-12.78-4.99-19.16-7.5c-7-2.75-14.05-5.4-21.2-7.74c-10.62-3.48-21.31-6.75-32.01-9.97
		c-7.22-2.17-14.57-3.88-21.79-6.06c-6.44-1.94-13.07-3.22-19.59-4.86c-6.4-1.6-12.74-3.51-19.19-4.87
		c-8.3-1.76-16.54-3.69-24.8-5.62c-10.74-2.51-21.54-4.78-32.33-7.09c-10.26-2.2-20.54-4.32-30.81-6.46
		c-1.58-0.33-3.19-0.49-4.77-0.83c-6.31-1.39-12.63-2.72-18.96-3.99c-8.7-1.75-17.47-3.15-26.12-5.18
		c-6.02-1.42-12.15-2.37-18.22-3.59c-11.22-2.25-22.43-4.55-33.64-6.81c-9.9-2-19.79-4-29.69-5.97c-4.75-0.95-9.57-1.52-14.22-2.95
		c-0.51-0.16-1.07-0.15-1.6-0.25c-8.85-1.72-17.71-3.37-26.53-5.19c-12.78-2.64-25.54-5.39-38.3-8.13
		c-8.69-1.87-17.38-3.71-26.03-5.73c-10.62-2.48-21.33-4.56-31.9-7.28c-8.08-2.08-16.36-3.34-24.38-5.71
		c-1.13-0.34-2.4-0.23-3.61-0.32C0,784.99,0,731.06,0,677.12z"/>
	<path class="st2" d="M0,838.92c1.2,0.1,2.47-0.01,3.61,0.32c8.02,2.37,16.3,3.63,24.38,5.71c10.57,2.72,21.28,4.8,31.9,7.28
		c8.65,2.02,17.34,3.86,26.03,5.73c12.76,2.74,25.52,5.49,38.3,8.13c8.83,1.82,17.69,3.47,26.53,5.19c0.53,0.1,1.09,0.1,1.6,0.25
		c4.65,1.43,9.47,2.01,14.22,2.95c9.9,1.97,19.8,3.97,29.69,5.97c11.21,2.27,22.42,4.56,33.64,6.81c6.07,1.22,12.2,2.17,18.22,3.59
		c8.65,2.03,17.42,3.44,26.12,5.18c6.33,1.27,12.65,2.6,18.96,3.99c1.57,0.35,3.19,0.5,4.77,0.83c10.27,2.14,20.55,4.26,30.81,6.46
		c10.79,2.31,21.59,4.59,32.33,7.09c8.25,1.93,16.5,3.86,24.8,5.62c6.45,1.37,12.79,3.27,19.19,4.87
		c6.53,1.63,13.16,2.92,19.59,4.86c7.23,2.18,14.58,3.89,21.79,6.06c10.7,3.22,21.39,6.49,32.01,9.97c7.15,2.34,14.2,4.98,21.2,7.74
		c6.38,2.51,12.84,4.84,19.16,7.5c6.57,2.76,13.01,5.8,19.51,8.73c3.19,1.44,6.4,2.84,9.54,4.38c4.82,2.37,9.59,4.84,14.38,7.27
		c0.6,0.31,1.15,0.71,1.76,0.99c8.45,3.91,16.39,8.77,24.56,13.19c5.2,2.82,10.08,6.21,15.24,9.11c6.47,3.64,12.4,8.1,18.76,11.89
		c6.48,3.85,12.76,8.01,18.93,12.31c7.18,5,14.35,10.01,21.63,14.88c2.79,1.87,5.29,4.16,8.06,6.06
		c6.44,4.41,12.72,9.02,18.85,13.86c2.95,2.33,6.17,4.33,9.22,6.55c3.48,2.52,6.9,5.12,10.36,7.68c0.77,0.57,1.44,1.22,1.88,2.08
		c-186.17,0-372.34,0-558.52,0c-0.1-0.7-0.42-1.25-1.02-1.65c-3.79-2.55-7.46-5.31-11.39-7.63c-4.31-2.53-8.14-5.69-12.22-8.51
		c-5.31-3.67-10.24-7.84-15.38-11.74c-5.9-4.48-11.38-9.42-17.1-14.1c-3.12-2.56-6.07-5.29-9.09-7.95
		c-3.63-3.19-7.41-6.21-10.87-9.6c-3.46-3.38-7.08-6.6-10.68-9.83c-4.3-3.86-8.59-7.73-13.01-11.44c-3.08-2.58-5.67-5.75-9.19-7.82
		c-0.46-0.27-0.85-0.67-1.21-1.06c-3.09-3.4-6.77-6.15-10.31-9.02c-6.16-4.99-12.36-9.93-18.58-14.84
		c-3.27-2.57-6.64-5.01-9.93-7.56c-0.91-0.71-1.88-0.99-2.99-1.02C0,917.12,0,878.02,0,838.92z"/>
	<path class="st0" d="M1920,241.89c-1.4,0.12-2.64-0.49-3.92-0.9c-7.95-2.57-15.93-5.06-23.83-7.8
		c-13.88-4.82-27.65-9.93-41.23-15.56c-12.83-5.32-25.5-10.97-38.07-16.86c-6.7-3.14-13.22-6.69-19.85-9.99
		c-4.23-2.11-8.37-4.32-12.27-7c-1.09-0.75-2.38-1.29-3.66-1.64c-1.6-0.44-3.03-1.16-4.39-2.02c-11.63-7.32-23.74-13.83-35.24-21.37
		c-7.21-4.73-14.45-9.4-21.63-14.15c-6.18-4.08-12.31-8.23-18.44-12.39c-3.57-2.42-7.08-4.92-10.62-7.38
		c-7.52-5.23-15.04-10.47-22.56-15.69c-9.51-6.6-19.07-13.14-28.55-19.78c-9.38-6.57-19.08-12.66-28.64-18.95
		c-7.66-5.03-15.48-9.78-23.3-14.56c-8.85-5.41-17.75-10.74-26.88-15.68c-8.41-4.56-16.77-9.22-25.28-13.6
		c-8.26-4.25-16.67-8.23-25.03-12.28c-1.33-0.64-2.89-0.84-4.14-1.59c-3.12-1.87-6.59-2.96-9.78-4.6c-3.49-1.79-7.13-3.18-10.68-4.8
		c-2.19-1-4.58-1.6-6.4-3.32C1623.66,0,1771.7,0,1920,0C1920,80.63,1920,161.26,1920,241.89z"/>
	<path class="st1" d="M0,956.22c1.1,0.02,2.08,0.31,2.99,1.02c3.28,2.55,6.66,4.98,9.93,7.56c6.22,4.91,12.42,9.85,18.58,14.84
		c3.55,2.88,7.22,5.62,10.31,9.02c0.36,0.4,0.76,0.79,1.21,1.06c3.52,2.07,6.11,5.23,9.19,7.82c4.43,3.71,8.71,7.59,13.01,11.44
		c3.6,3.23,7.23,6.44,10.68,9.83c3.47,3.39,7.24,6.41,10.87,9.6c3.02,2.66,5.97,5.39,9.09,7.95c5.71,4.68,11.2,9.63,17.1,14.1
		c5.14,3.9,10.07,8.07,15.38,11.74c4.08,2.82,7.92,5.98,12.22,8.51c3.93,2.31,7.6,5.07,11.39,7.63c0.6,0.4,0.92,0.96,1.02,1.65
		c-50.99,0-101.99,0-152.98,0C0,1038.74,0,997.48,0,956.22z"/>
</g>
</svg>
