<?xml version="1.0" encoding="utf-8"?>
<!-- Generator: Adobe Illustrator 25.4.1, SVG Export Plug-In . SVG Version: 6.00 Build 0)  -->
<svg version="1.1" id="Layer_1" xmlns="http://www.w3.org/2000/svg" xmlns:xlink="http://www.w3.org/1999/xlink" x="0px" y="0px"
	 viewBox="0 0 1000 491.3" style="enable-background:new 0 0 1000 491.3;" xml:space="preserve">
<g>
	<path d="M195.5,166.7V45.2h41.9V58h0.5c10.9-10.9,22.5-16.3,34.8-16.3c8.8,0,17.1,1.8,24.9,5.4c7.7,3.6,13.6,9.2,17.5,16.8
		c12.3-14.8,25.7-22.3,40.3-22.3c12.9,0,24.1,3.6,33.4,10.9c9.3,7.3,14,18.6,14,34.1v80.1h-41.9V98.1c0-6.5-1.8-11.9-5.3-16.2
		c-3.6-4.3-8.9-6.5-16-6.5c-6.2,0-10.9,1.9-14.1,5.6c-3.2,3.7-5,8.2-5.3,13.4v72.5h-41.9V98.1c0-6.5-1.8-11.9-5.3-16.2
		c-3.6-4.3-8.9-6.5-16-6.5c-6.5,0-11.3,2-14.6,6c-3.2,4-4.9,8.8-4.9,14.3v71.1H195.5z"/>
	<path d="M437.1,151.7c-11.4-12.4-17.1-27.6-17.1-45.6c0-18,5.7-33.2,17.1-45.7c11.4-12.5,25.8-18.7,43.3-18.7
		c16.1,0,29.4,5.1,39.8,15.2V45.2h41.9v121.5h-41.4V153h-0.5c-10.4,11.5-23.7,17.3-39.8,17.3C462.9,170.3,448.5,164.1,437.1,151.7z
		 M472.8,85.5c-5.4,5.4-8.2,12.2-8.2,20.6c0,8.4,2.6,15.2,7.8,20.5c5.2,5.3,12.1,7.9,20.6,7.9c8.2,0,15-2.7,20.3-8.1
		c5.3-5.4,7.9-12.2,7.9-20.4c0-8.4-2.7-15.2-8.2-20.6c-5.4-5.4-12.1-8.1-20-8.1C485,77.5,478.2,80.1,472.8,85.5z"/>
	<path d="M596,45.2V0H638v45.2h25.6v32H638v38.6c0,11.2,3.2,16.8,9.5,16.8c1.6,0,3.2-0.3,5-0.9c1.7-0.6,3.1-1.3,4-1.9l1.4-0.9
		l10.4,33.9c-9,5.1-19.3,7.6-30.8,7.6c-7.9,0-14.7-1.4-20.4-4.1s-10-6.5-12.9-11.1c-2.9-4.7-5-9.6-6.3-14.7
		c-1.3-5.1-1.9-10.6-1.9-16.5V77.2h-17.5v-32H596z"/>
	<path d="M805.4,111.8h-88.1c0,8.5,2.8,14.8,8.3,18.9c5.5,4.1,11.5,6.2,18,6.2c6.8,0,12.2-0.9,16.1-2.7c3.9-1.8,8.4-5.4,13.5-10.8
		l30.3,15.2c-12.6,21.2-33.6,31.7-63,31.7c-18.3,0-34-6.3-47.1-18.8c-13.1-12.6-19.7-27.7-19.7-45.4c0-17.7,6.6-32.8,19.7-45.5
		c13.1-12.6,28.8-18.9,47.1-18.9c19.3,0,34.9,5.6,47,16.7c12.1,11.1,18.1,27,18.1,47.7C805.7,109,805.6,110.8,805.4,111.8z
		 M718.5,88.6h46.2c-0.9-6.3-3.4-11.2-7.5-14.6c-4-3.4-9.2-5.1-15.5-5.1c-6.9,0-12.5,1.8-16.6,5.4C721,78,718.8,82.7,718.5,88.6z"/>
	<path d="M0,426.2V304.7h41.9v12.8h0.5c10.9-10.9,22.5-16.3,34.8-16.3c8.8,0,17.1,1.8,24.9,5.4c7.7,3.6,13.6,9.2,17.5,16.8
		c12.3-14.8,25.7-22.3,40.3-22.3c12.9,0,24.1,3.6,33.4,10.9c9.3,7.3,14,18.6,14,34.1v80.1h-41.9v-68.7c0-6.5-1.8-11.9-5.3-16.2
		c-3.6-4.3-8.9-6.5-16-6.5c-6.2,0-10.9,1.9-14.1,5.6c-3.2,3.7-5,8.2-5.3,13.4v72.5H82.7v-68.7c0-6.5-1.8-11.9-5.3-16.2
		c-3.6-4.3-8.9-6.5-16-6.5c-6.5,0-11.3,2-14.6,6c-3.2,4-4.9,8.8-4.9,14.3v71.1H0z"/>
	<path d="M284.9,301.1c16.1,0,29.4,5.1,39.8,15.2v-11.6h41.9v121.5h-41.5v-13.7h-0.5c-10.4,11.5-23.7,17.3-39.8,17.3
		c-17.5,0-32-6.2-43.3-18.6c-11.4-12.4-17.1-27.6-17.1-45.6c0-18,5.7-33.2,17.1-45.7C253,307.3,267.4,301.1,284.9,301.1z M297.5,394
		c8.2,0,15-2.7,20.3-8.1c5.3-5.4,7.9-12.2,7.9-20.4c0-8.4-2.7-15.2-8.2-20.6c-5.4-5.4-12.1-8.1-20-8.1c-8.1,0-14.8,2.7-20.3,8.1
		c-5.4,5.4-8.2,12.2-8.2,20.6c0,8.4,2.6,15.2,7.8,20.5C282.1,391.3,289,394,297.5,394z M299.4,287.1l56.4-32.7l-21.6-27.2
		l-48.1,41.7L299.4,287.1z"/>
	<path d="M389.6,456l34.3-16.8c6.3,10.4,17.3,15.6,32.9,15.6c7.3,0,14-2.3,20.3-7c6.2-4.7,9.4-11.8,9.4-21.4v-9
		c-7.4,8.2-20.7,12.3-39.8,12.3c-17.5,0-32-6.2-43.3-18.6c-11.4-12.4-17.1-27.6-17.1-45.6c0-18,5.7-33.2,17.1-45.7
		c11.4-12.5,25.8-18.7,43.3-18.7c15.6,0,28.7,4.8,39.1,14.4h0.7v-10.9h41.9v124.8c0,19.7-6.6,35-19.7,45.7
		c-13.1,10.7-30.4,16.1-51.9,16.1C422.2,491.3,399.7,479.5,389.6,456z M439,344.9c-5.4,5.4-8.2,12.2-8.2,20.6
		c0,8.4,2.6,15.2,7.8,20.5c5.2,5.3,12.1,7.9,20.6,7.9c8.2,0,15-2.7,20.3-8.1c5.3-5.4,7.9-12.2,7.9-20.4c0-8.4-2.7-15.2-8.2-20.6
		c-5.4-5.4-12.1-8.1-20-8.1C451.2,336.9,444.5,339.6,439,344.9z"/>
	<path d="M560.9,236.9c4.9-4.9,10.7-7.3,17.5-7.3c6.8,0,12.6,2.5,17.5,7.3c4.9,4.9,7.3,10.7,7.3,17.5c0,6.8-2.5,12.6-7.3,17.5
		c-4.9,4.9-10.7,7.3-17.5,7.3c-6.8,0-12.6-2.4-17.5-7.3c-4.9-4.9-7.3-10.7-7.3-17.5C553.5,247.7,556,241.8,560.9,236.9z
		 M556.8,304.7v121.5h41.9V304.7H556.8z"/>
	<path d="M693,335.5c-7.9,0-14.7,2.9-20.4,8.8c-5.7,5.8-8.5,12.9-8.5,21.1c0,8.4,2.8,15.5,8.5,21.3c5.7,5.8,12.5,8.8,20.4,8.8
		c3.8,0,7.4-0.5,10.8-1.4c3.4-0.9,5.9-1.9,7.5-2.8l2.1-1.4l14.2,29.1c-1.1,0.8-2.6,1.8-4.6,3c-2,1.2-6.5,2.8-13.5,4.9
		c-7,2.1-14.6,3.1-22.6,3.1c-17.8,0-33.5-6.3-47-18.8c-13.5-12.6-20.3-27.6-20.3-45.1c0-17.7,6.7-32.9,20.3-45.6
		c13.5-12.7,29.2-19.1,47-19.1c8.1,0,15.5,0.9,22.3,2.8c6.8,1.9,11.6,3.8,14.4,5.7l4,2.8l-14.2,28.7
		C708.2,337.3,701.4,335.5,693,335.5z"/>
	<path d="M751.8,411.1c-11.4-12.4-17.1-27.6-17.1-45.6c0-18,5.7-33.2,17.1-45.7c11.4-12.5,25.8-18.7,43.3-18.7
		c16.1,0,29.4,5.1,39.8,15.2v-11.6h41.9v121.5h-41.5v-13.7h-0.5c-10.4,11.5-23.7,17.3-39.8,17.3
		C777.6,429.7,763.1,423.5,751.8,411.1z M787.4,344.9c-5.4,5.4-8.2,12.2-8.2,20.6c0,8.4,2.6,15.2,7.8,20.5
		c5.2,5.3,12.1,7.9,20.6,7.9c8.2,0,15-2.7,20.3-8.1c5.3-5.4,7.9-12.2,7.9-20.4c0-8.4-2.7-15.2-8.2-20.6c-5.4-5.4-12.1-8.1-20-8.1
		C799.6,336.9,792.9,339.6,787.4,344.9z"/>
	<path d="M957.1,301.1c6.9,0,13.8,0.8,20.6,2.4c6.8,1.6,11.8,3.2,15.2,4.7l5,2.4l-13.7,27.5c-9.5-5.1-18.5-7.6-27-7.6
		c-4.7,0-8.1,0.5-10.1,1.5c-2,1-3,3-3,5.8c0,0.6,0.1,1.3,0.2,1.9c0.2,0.6,0.5,1.2,0.9,1.8c0.5,0.6,0.9,1,1.3,1.4
		c0.4,0.4,1.1,0.8,2,1.3c0.9,0.5,1.7,0.8,2.2,1.1c0.6,0.2,1.5,0.6,2.7,1.1c1.3,0.5,2.2,0.8,2.8,1.1c0.6,0.2,1.7,0.6,3.2,1.1
		c1.5,0.5,2.6,0.8,3.4,0.9c4.9,1.4,9.2,3,12.8,4.7c3.6,1.7,7.5,4.1,11.5,7.1c4,3,7.1,6.8,9.4,11.4c2.2,4.6,3.3,9.8,3.3,15.6
		c0,27.6-19.2,41.5-57.6,41.5c-8.7,0-16.9-1.3-24.8-4c-7.8-2.7-13.5-5.4-16.9-8.1l-5.2-4.3l17.1-28.7c1.3,1.1,2.9,2.4,5,3.9
		c2.1,1.5,5.8,3.6,11.1,6.2c5.4,2.6,10,3.9,14,3.9c8.7,0,13-2.9,13-8.8c0-2.7-1.1-4.8-3.3-6.3c-2.2-1.5-6-3.2-11.2-5.1
		c-5.3-1.9-9.4-3.6-12.4-5.2c-7.6-3.9-13.6-8.4-18-13.4c-4.4-5-6.6-11.6-6.6-19.8c0-12.3,4.8-21.9,14.3-28.8
		C928,304.5,940.9,301.1,957.1,301.1z"/>
	<rect y="190.4" width="1000" height="16.7"/>
</g>
</svg>
